<?xml version="1.0" standalone="no"?>
<!DOCTYPE svg PUBLIC "-//W3C//DTD SVG 20010904//EN"
 "http://www.w3.org/TR/2001/REC-SVG-20010904/DTD/svg10.dtd">
<svg version="1.0" xmlns="http://www.w3.org/2000/svg"
 width="512.000000pt" height="512.000000pt" viewBox="0 0 512.000000 512.000000"
 preserveAspectRatio="xMidYMid meet">

<g transform="translate(0.000000,512.000000) scale(0.100000,-0.100000)"
fill="#000000" stroke="none">
<path d="M1885 4661 c-133 -33 -239 -96 -337 -199 -53 -56 -61 -60 -115 -67
-294 -37 -571 -266 -669 -555 -36 -106 -47 -190 -42 -316 l4 -113 -30 -13
c-60 -24 -189 -132 -248 -206 -117 -147 -176 -302 -185 -488 -9 -176 37 -351
129 -494 59 -92 189 -217 276 -265 50 -27 71 -45 68 -55 -3 -8 -16 -47 -29
-85 -84 -240 -52 -511 88 -725 149 -230 378 -363 663 -385 l92 -8 63 -61 c123
-119 256 -176 428 -184 128 -5 223 13 325 62 167 80 284 208 349 380 23 62 25
78 25 251 l0 185 223 0 223 0 62 -90 c35 -49 59 -90 54 -90 -25 0 -104 -87
-134 -148 -29 -59 -33 -76 -33 -147 1 -65 6 -91 27 -136 73 -158 244 -241 402
-195 125 37 205 117 242 241 31 109 0 234 -81 323 -36 40 -142 102 -174 102
-10 0 -64 66 -131 161 -66 92 -126 167 -142 175 -21 11 -82 14 -283 14 l-255
0 0 185 0 185 473 0 472 0 201 -134 201 -134 -19 -59 c-43 -125 -7 -265 92
-357 76 -71 127 -91 235 -91 78 0 97 4 146 28 67 32 142 109 172 175 17 37 22
66 22 137 0 78 -4 97 -28 146 -32 67 -109 142 -174 171 -66 29 -159 35 -236
14 l-63 -17 -240 160 -241 161 -506 0 -507 0 0 180 0 180 724 0 724 0 26 -55
c56 -113 174 -185 306 -185 100 0 171 29 241 99 70 70 99 141 99 241 0 100
-29 171 -99 241 -70 70 -141 99 -241 99 -132 0 -250 -72 -306 -185 l-26 -55
-724 0 -724 0 0 175 0 174 504 3 503 3 245 163 246 164 46 -16 c249 -85 507
150 442 403 -9 33 -23 73 -33 89 -31 50 -98 113 -148 140 -44 24 -61 27 -150
27 -84 0 -107 -4 -146 -23 -157 -77 -235 -256 -181 -415 l19 -59 -201 -134
-201 -134 -472 0 -473 0 0 185 0 185 255 0 c201 0 262 3 283 14 16 8 76 83
142 175 67 95 121 161 131 161 32 0 138 62 174 102 62 68 89 140 89 233 0 66
-4 90 -27 140 -69 148 -235 230 -388 191 -130 -33 -222 -125 -254 -254 -34
-131 17 -273 125 -351 l39 -28 -62 -86 -61 -87 -223 0 -223 0 0 136 c0 159
-17 247 -66 351 -89 188 -274 337 -470 378 -92 19 -232 18 -319 -4z m316 -211
c147 -50 259 -160 309 -305 19 -54 20 -84 20 -438 l0 -380 -42 40 c-96 88
-211 149 -342 183 -100 25 -212 27 -242 2 -53 -43 -58 -100 -11 -146 29 -30
40 -34 109 -40 145 -13 262 -67 364 -170 78 -78 133 -177 153 -274 7 -33 11
-202 11 -455 l0 -401 -42 40 c-129 123 -314 202 -482 205 -40 1 -82 -4 -94
-10 -32 -17 -55 -68 -48 -106 11 -54 44 -76 134 -86 44 -5 108 -18 144 -29
172 -53 324 -216 373 -400 12 -43 15 -128 15 -383 l0 -328 -27 -57 c-89 -182
-301 -294 -497 -263 -124 20 -241 91 -307 187 -16 24 -39 49 -50 55 -11 6 -80
12 -152 14 -164 3 -234 24 -358 107 -162 107 -279 324 -279 518 0 150 64 305
169 409 102 102 213 153 369 170 89 10 108 20 128 66 16 39 8 78 -22 109 -31
31 -52 34 -153 24 -151 -14 -294 -76 -425 -185 l-62 -51 -48 24 c-120 61 -219
157 -278 270 -98 188 -101 387 -8 579 65 134 157 222 314 300 102 50 115 72
97 159 -35 167 -20 300 50 444 57 118 160 222 279 281 47 23 101 44 120 47
l35 6 -3 -77 c-4 -84 20 -223 45 -266 34 -57 108 -66 155 -18 34 33 33 24 9
204 -12 89 1 205 30 251 44 72 174 161 267 183 72 17 208 12 273 -9z m1340
-55 c90 -47 90 -193 0 -240 -91 -47 -201 17 -201 118 0 104 108 170 201 122z
m925 -630 c14 -9 34 -30 44 -48 73 -119 -78 -260 -195 -183 -87 57 -76 199 19
242 37 17 97 12 132 -11z m133 -1092 c85 -63 75 -186 -20 -236 -92 -49 -208
33 -195 137 12 104 133 159 215 99z m-133 -1088 c57 -37 80 -116 49 -175 -68
-131 -259 -86 -259 61 0 109 119 174 210 114z m-925 -620 c90 -47 90 -193 0
-240 -91 -47 -201 17 -201 118 0 104 108 170 201 122z"/>
</g>
</svg>
